<svg width="120" height="120" viewBox="0 0 120 120" fill="none" xmlns="http://www.w3.org/2000/svg">
<g clip-path="url(#clip0_14_58)">
<path d="M7.5 7.5H112.5V112.5H7.5V7.5Z" fill="#0065A9"/>
<path d="M59.1364 56.6364V63.4545H32V56.6364H59.1364ZM39.9091 44.0909H47.9545V94C47.9545 96.2727 48.2841 97.9773 48.9432 99.1136C49.625 100.227 50.4886 100.977 51.5341 101.364C52.6023 101.727 53.7273 101.909 54.9091 101.909C55.7955 101.909 56.5227 101.864 57.0909 101.773C57.6591 101.659 58.1136 101.568 58.4545 101.5L60.0909 108.727C59.5455 108.932 58.7841 109.136 57.8068 109.341C56.8295 109.568 55.5909 109.682 54.0909 109.682C51.8182 109.682 49.5909 109.193 47.4091 108.216C45.25 107.239 43.4545 105.75 42.0227 103.75C40.6136 101.75 39.9091 99.2273 39.9091 96.1818V44.0909ZM107.392 68.3636L100.165 70.4091C99.7102 69.2045 99.0398 68.0341 98.1534 66.8977C97.2898 65.7386 96.108 64.7841 94.608 64.0341C93.108 63.2841 91.1875 62.9091 88.8466 62.9091C85.642 62.9091 82.9716 63.6477 80.8352 65.125C78.7216 66.5795 77.6648 68.4318 77.6648 70.6818C77.6648 72.6818 78.392 74.2614 79.8466 75.4205C81.3011 76.5795 83.5739 77.5455 86.6648 78.3182L94.4375 80.2273C99.1193 81.3636 102.608 83.1023 104.903 85.4432C107.199 87.7614 108.347 90.75 108.347 94.4091C108.347 97.4091 107.483 100.091 105.756 102.455C104.051 104.818 101.665 106.682 98.5966 108.045C95.5284 109.409 91.9602 110.091 87.892 110.091C82.5511 110.091 78.1307 108.932 74.6307 106.614C71.1307 104.295 68.9148 100.909 67.983 96.4545L75.6193 94.5455C76.3466 97.3636 77.7216 99.4773 79.7443 100.886C81.7898 102.295 84.4602 103 87.7557 103C91.5057 103 94.483 102.205 96.6875 100.614C98.9148 99 100.028 97.0682 100.028 94.8182C100.028 93 99.392 91.4773 98.1193 90.25C96.8466 89 94.892 88.0682 92.2557 87.4545L83.5284 85.4091C78.733 84.2727 75.2102 82.5114 72.9602 80.125C70.733 77.7159 69.6193 74.7045 69.6193 71.0909C69.6193 68.1364 70.4489 65.5227 72.108 63.25C73.7898 60.9773 76.0739 59.1932 78.9602 57.8977C81.8693 56.6023 85.1648 55.9545 88.8466 55.9545C94.0284 55.9545 98.0966 57.0909 101.051 59.3636C104.028 61.6364 106.142 64.6364 107.392 68.3636Z" fill="black"/>
</g>
<defs>
<clipPath id="clip0_14_58">
<rect width="120" height="120" fill="white"/>
</clipPath>
</defs>
</svg>
