<svg width="120" height="120" viewBox="0 0 120 120" fill="none" xmlns="http://www.w3.org/2000/svg">
<path d="M7.5 7.5H112.5V112.5H7.5V7.5Z" fill="#F5DE19"/>
<path d="M86.8888 94.4216C87.7834 96.2389 89.1733 97.7663 90.8984 98.8279C92.6234 99.8894 94.6133 100.442 96.6388 100.422C100.726 100.422 103.34 98.3779 103.34 95.5466C103.34 92.1716 100.655 90.9641 96.155 88.9954L93.6875 87.9379C86.5625 84.9041 81.8375 81.1054 81.8375 73.0729C81.8375 65.6741 87.4625 60.0379 96.2863 60.0379C99.1426 59.8316 101.997 60.4709 104.492 61.876C106.987 63.2811 109.014 65.3898 110.319 67.9391L102.605 72.8704C102.103 71.6063 101.228 70.5249 100.097 69.7694C98.9654 69.014 97.6313 68.6202 96.2713 68.6404C95.6779 68.581 95.0786 68.6458 94.5116 68.8308C93.9447 69.0158 93.4225 69.3169 92.9783 69.7148C92.5342 70.1128 92.1778 70.5989 91.9319 71.1422C91.6859 71.6855 91.5559 72.2741 91.55 72.8704C91.55 75.8291 93.3838 77.0291 97.6175 78.8704L100.085 79.9279C108.47 83.5241 113.21 87.1879 113.21 95.4266C113.21 104.31 106.231 109.178 96.86 109.178C93.2086 109.411 89.568 108.582 86.3773 106.791C83.1867 105 80.5824 102.325 78.8788 99.0866L86.8888 94.4216ZM52.0325 95.2766C53.5813 98.0254 54.9913 100.35 58.3813 100.35C61.6213 100.35 63.6687 99.0829 63.6687 94.1516V60.6004H73.535V94.2829C73.535 104.498 67.535 109.148 58.8013 109.148C55.7141 109.317 52.6481 108.547 50.0063 106.941C47.3646 105.335 45.2707 102.966 44 100.148L52.0325 95.2766Z" fill="black"/>
</svg>
